<?xml version="1.0" encoding="utf-8"?>
<!-- Generator: Adobe Illustrator 16.0.0, SVG Export Plug-In . SVG Version: 6.00 Build 0)  -->
<!DOCTYPE svg PUBLIC "-//W3C//DTD SVG 1.1//EN" "http://www.w3.org/Graphics/SVG/1.1/DTD/svg11.dtd">
<svg version="1.1" id="Layer_1" xmlns="http://www.w3.org/2000/svg" xmlns:xlink="http://www.w3.org/1999/xlink" x="0px" y="0px"
	 width="227.316px" height="297.072px" viewBox="0 0 227.316 297.072" enable-background="new 0 0 227.316 297.072"
	 xml:space="preserve">
<path fill="#FFFFFF" stroke="#FFFFFF" stroke-miterlimit="10" d="M207.066,152.6c0,12.276-2.167,23.396-6.5,33.335
	c-4.335,9.953-10.693,18.425-19.076,25.414c-8.391,6.992-18.66,12.396-30.809,16.206c-12.15,3.809-26.116,5.707-41.89,5.707
	c-17.336,0-32.047-1.818-44.127-5.451c-12.082-3.644-21.928-8.783-29.521-15.436c-7.605-6.653-13.148-14.642-16.628-23.964
	c-3.49-9.318-5.229-19.722-5.229-31.208V7.293h37.949v147.518c0,8.762,1.024,16.436,3.09,23.027
	c2.062,6.59,5.438,12.107,10.127,16.543c4.688,4.436,10.766,7.788,18.229,10.059c7.462,2.277,16.587,3.412,27.392,3.412
	c20.18,0,35.071-4.655,44.665-13.98c9.592-9.326,14.386-22.457,14.386-39.396V7.293h37.944L207.066,152.6L207.066,152.6z"/>
<rect x="2.868" y="264.004" fill="#FFFFFF" stroke="#FFFFFF" stroke-miterlimit="10" width="220.769" height="29.905"/>
</svg>
