<?xml version="1.0" encoding="utf-8"?>
<!-- Generator: Adobe Illustrator 16.0.0, SVG Export Plug-In . SVG Version: 6.00 Build 0)  -->
<!DOCTYPE svg PUBLIC "-//W3C//DTD SVG 1.1//EN" "http://www.w3.org/Graphics/SVG/1.1/DTD/svg11.dtd">
<svg version="1.1" id="Layer_1" xmlns="http://www.w3.org/2000/svg" xmlns:xlink="http://www.w3.org/1999/xlink" x="0px" y="0px"
	 width="212.684px" height="208.78px" viewBox="0 0 212.684 208.78" enable-background="new 0 0 212.684 208.78"
	 xml:space="preserve">
<rect x="11.207" y="12.493" fill="#D1D3D4" stroke="#A7A9AC" stroke-width="7" stroke-miterlimit="10" width="187.489" height="182.221"/>
<g>
	<polygon fill="#D1D3D4" stroke="#A7A9AC" stroke-width="7" stroke-miterlimit="10" points="163.185,175.805 45.205,175.805 
		45.205,26.477 129.502,26.971 129.243,61.254 163.173,61.358 	"/>
	<g>
		<rect x="59.908" y="73.333" fill="#999999" width="27.455" height="15.296"/>
		<rect x="91.486" y="73.333" fill="#999999" width="36.166" height="15.296"/>
	</g>
	<g>
		<rect x="80.446" y="96.421" fill="#999999" width="27.456" height="15.296"/>
		<rect x="59.907" y="96.422" fill="#999999" width="16.852" height="15.295"/>
		<rect x="112.026" y="96.422" fill="#999999" width="36.166" height="15.295"/>
	</g>
	<g>
		<rect x="80.446" y="119.509" fill="#999999" width="27.457" height="15.296"/>
		<rect x="59.907" y="119.51" fill="#999999" width="16.852" height="15.295"/>
		<rect x="112.026" y="119.51" fill="#999999" width="36.166" height="15.295"/>
	</g>
	<polygon fill="#999999" points="166.559,58.098 132.635,57.916 132.854,23.626 	"/>
	<g>
		<rect x="80.446" y="142.597" fill="#999999" width="27.457" height="15.296"/>
		<rect x="59.907" y="142.598" fill="#999999" width="16.852" height="15.295"/>
		<rect x="112.026" y="142.598" fill="#999999" width="36.166" height="15.295"/>
	</g>
</g>
</svg>
